<svg height="48px" viewbox="0 0 48 48" width="48px" version="1.1" xmlns="http://www.w3.org/2000/svg" xmlns:xlink="http://www.w3.org/1999/xlink">
  <g fill="none" fill-rule="evenodd" stroke="none" stroke-width="1">
    <g fill-rule="nonzero" transform="translate(2.000000, 4.000000)">
      <circle cx="9" cy="9" fill="#FF9E00" r="9"></circle>
      <path d="M40.08809,20.35995 C39.21532,18.54957 37.4352,17.71818 34.66266,18.06674 L34.65853,18.075 C33.63856,16.93573 32.0451,16.2814 29.65969,16.50072 L29.65556,16.50815 C28.99596,12.76051 27.76774,9.28606 26.37436,7.04628 C25.57849,5.76689 23.95107,5.17785 22.56665,5.7726 C20.79558,6.53339 20.19054,8.64728 21.17898,10.20493 C22.8274,12.80267 23.70012,18.74798 23.31131,23.56764 C23.17046,25.31342 20.99631,26.03855 19.80553,24.75419 L17.87776,22.67494 C16.53441,21.24973 14.28996,21.18336 12.86475,22.52676 C11.43954,23.87016 11.37317,26.11456 12.71657,27.53977 L23.07805,41 L41.31611,41 L44.6283,28.41348 C45.59607,24.73619 44.871,20.74798 40.08809,20.35995 Z" fill="#FFCE7F"></path>
    </g>
  </g>
</svg>