<?xml version="1.0" encoding="iso-8859-1"?>
<!-- Generator: Adobe Illustrator 19.0.0, SVG Export Plug-In . SVG Version: 6.00 Build 0)  -->
<svg version="1.1" id="Capa_1" xmlns="http://www.w3.org/2000/svg" xmlns:xlink="http://www.w3.org/1999/xlink" x="0px" y="0px"
	 viewBox="0 0 512.001 512.001" style="enable-background:new 0 0 512.001 512.001;" xml:space="preserve">
<path style="fill:#FFF5CD;" d="M436.672,376.482h-30.115c39.752,0,39.752,60.23,0,60.23h-30.115c39.752,0,39.752,60.23,0,60.23
	H274.653c-57.22,0-91.248-13.854-139.132-30.115V286.136c36.44-18.37,55.112-24.997,77.999-47.884
	c23.79-23.79,38.546-85.526,41.859-119.255l1.206-14.456l14.756,0.904c56.616,3.614,56.616,108.716,14.756,150.576h150.576
	c39.752,0,39.752,60.23,0,60.23C476.424,316.252,476.424,376.482,436.672,376.482z"/>
<g>
	<path style="fill:#4DBBEB;" d="M227.454,51.95l-15.058-30.115c-8.898-17.795,18.013-31.251,26.939-13.47l15.058,30.115
		C263.365,56.425,236.257,69.506,227.454,51.95z"/>
	<path style="fill:#4DBBEB;" d="M317.8,38.48l15.058-30.115c8.854-17.709,35.866-4.385,26.939,13.47L344.739,51.95
		C335.8,69.777,308.844,56.391,317.8,38.48z"/>
	<path style="fill:#4DBBEB;" d="M406.557,120.503h-30.115c-19.849,0-19.93-30.115,0-30.115h30.115
		C426.406,90.388,426.487,120.503,406.557,120.503z"/>
	<path style="fill:#4DBBEB;" d="M195.751,120.503h-30.115c-19.849,0-19.93-30.115,0-30.115h30.115
		C215.6,90.388,215.681,120.503,195.751,120.503z"/>
</g>
<path style="fill:#FEDBAB;" d="M406.557,436.712h-30.115c39.752,0,39.752,60.23,0,60.23H274.653
	c-57.22,0-91.248-13.854-139.132-30.115v-90.346h271.036C446.309,376.482,446.309,436.712,406.557,436.712z"/>
<g>
	<path style="fill:#FEC478;" d="M470.401,316.252c25.899-28.912,5.119-75.288-33.729-75.288H316.212
		c36.138-64.446,3.011-150.576-47.884-150.576h-12.346c-8.433,0-15.058,6.624-15.058,15.058c0,34.331-13.854,97.874-39.15,123.471
		c-19.877,19.576-45.474,29.816-72.878,43.667c-5.121,2.711-8.433,7.83-8.433,13.552v180.691c0,6.325,4.216,12.346,10.24,14.153
		c47.279,15.962,84.02,31.02,143.949,31.02h101.789c31.621,0,53.905-32.223,41.86-61.736c25.597-6.927,40.353-34.935,30.115-60.23
		c9.035-2.41,16.563-7.228,21.983-13.552C484.855,360.221,486.363,334.321,470.401,316.252z M346.327,391.539h60.23
		c19.875,0,19.875,30.115,0,30.115h-60.23c-19.875,0-19.875,30.115,0,30.115h30.115c19.875,0,19.875,30.115,0,30.115H274.653
		c-53.305,0-85.526-12.949-124.075-25.899V295.472c30.718-15.359,49.691-22.888,73.481-46.679
		c26.2-26.2,42.764-91.25,46.376-128.291c42.463,2.711,37.343,92.756,5.121,124.979c-9.637,9.336-3.013,25.597,10.539,25.597
		h150.576c19.875,0,19.875,30.115,0,30.115h-90.345c-19.875,0-19.875,30.115,0,30.115h90.345c19.875,0,19.875,30.115,0,30.115
		h-90.345c-9.939,0-15.058,7.529-15.058,15.058C331.268,384.011,336.389,391.539,346.327,391.539z"/>
	<path style="fill:#FEC478;" d="M448.417,390.035c10.238,25.296-4.518,53.303-30.115,60.23c12.045,29.512-10.24,61.736-41.86,61.736
		H274.653c-59.929,0-96.671-15.058-143.95-31.02c-6.023-1.807-10.24-7.828-10.24-14.153v-90.346h30.115v79.504
		c38.548,12.95,70.77,25.899,124.075,25.899h101.789c19.875,0,19.875-30.115,0-30.115h-30.115c-19.875,0-19.875-30.115,0-30.115
		h60.23c19.875,0,19.875-30.115,0-30.115h-60.23c-9.939,0-15.058-7.529-15.058-15.058h139.132
		C464.98,382.807,457.452,387.624,448.417,390.035z"/>
</g>
<path style="fill:#4DBBEB;" d="M135.521,240.964H45.175c-8.433,0-15.058,6.624-15.058,15.058v240.921
	c0,8.433,6.624,15.058,15.058,15.058h90.345c8.433,0,15.058-6.624,15.058-15.058V256.021
	C150.578,247.588,143.954,240.964,135.521,240.964z"/>
<path style="fill:#159CE4;" d="M150.578,376.482v120.461c0,8.433-6.624,15.058-15.058,15.058H45.175
	c-8.433,0-15.058-6.624-15.058-15.058V376.482H150.578z"/>
<g>
</g>
<g>
</g>
<g>
</g>
<g>
</g>
<g>
</g>
<g>
</g>
<g>
</g>
<g>
</g>
<g>
</g>
<g>
</g>
<g>
</g>
<g>
</g>
<g>
</g>
<g>
</g>
<g>
</g>
</svg>
